name C:/MyDriveSym/Projects/mobilecap/Data\Session20210813_0002\mocap\ForceDataProcessed\walkingTS1_forces.mot
datacolumns 19
datarows 29
range 0.00000000 0.01400000
endheader 
time	R_ground_force_vx	R_ground_force_vy	R_ground_force_vz	R_ground_force_px	R_ground_force_py	R_ground_force_pz	R_ground_torque_x	R_ground_torque_y	R_ground_torque_z	L_ground_force_vx	L_ground_force_vy	L_ground_force_vz	L_ground_force_px	L_ground_force_py	L_ground_force_pz	L_ground_torque_x	L_ground_torque_y	L_ground_torque_z	
          0.00000000	       -132.61116700	        647.63149300	         15.19633400	          0.05937500	          0.00600000	         -0.21125500	          0.00000000	          1.05737400	          0.00000000	          0.00000000	          0.00000000	          0.00000000	          0.68612700	          0.00000000	         -0.24873200	          0.00000000	          0.00000000	          0.00000000	
          0.00050000	       -132.80532200	        648.58841300	         15.01839400	          0.05937500	          0.00600000	         -0.21125500	          0.00000000	          1.06527600	          0.00000000	          0.00000000	          0.00000000	          0.00000000	          0.68612700	          0.00000000	         -0.24873200	          0.00000000	          0.00000000	          0.00000000	
          0.00100000	       -132.99918400	        649.54663400	         14.83847000	          0.05937500	          0.00600000	         -0.21125500	          0.00000000	          1.07320100	          0.00000000	          0.00000000	          0.00000000	          0.00000000	          0.68612700	          0.00000000	         -0.24873200	          0.00000000	          0.00000000	          0.00000000	
          0.00150000	       -133.19271700	        650.50603000	         14.65655600	          0.05937500	          0.00600000	         -0.21125500	          0.00000000	          1.08115000	          0.00000000	          0.00000000	          0.00000000	          0.00000000	          0.68612700	          0.00000000	         -0.24873200	          0.00000000	          0.00000000	          0.00000000	
          0.00200000	       -133.38588600	        651.46647600	         14.47264500	          0.05955200	          0.00600000	         -0.21119600	          0.00000000	          1.08912200	          0.00000000	          0.00000000	          0.00000000	          0.00000000	          0.68612700	          0.00000000	         -0.24873200	          0.00000000	          0.00000000	          0.00000000	
          0.00250000	       -133.57865700	        652.42784300	         14.28673100	          0.05973100	          0.00600000	         -0.21113700	          0.00000000	          1.09711600	          0.00000000	          0.00000000	          0.00000000	          0.00000000	          0.68612700	          0.00000000	         -0.24873200	          0.00000000	          0.00000000	          0.00000000	
          0.00300000	       -133.77099300	        653.39000100	         14.09881100	          0.05991000	          0.00600000	         -0.21107700	          0.00000000	          1.10513300	          0.00000000	          0.00000000	          0.00000000	          0.00000000	          0.68612700	          0.00000000	         -0.24873200	          0.00000000	          0.00000000	          0.00000000	
          0.00350000	       -133.96286000	        654.35282000	         13.90887800	          0.06009000	          0.00600000	         -0.21101700	          0.00000000	          1.11317200	          0.00000000	          0.00000000	          0.00000000	          0.00000000	          0.68612700	          0.00000000	         -0.24873200	          0.00000000	          0.00000000	          0.00000000	
          0.00400000	       -134.15422000	        655.31617000	         13.71692800	          0.06027100	          0.00600000	         -0.21095600	          0.00000000	          1.12123400	          0.00000000	          0.00000000	          0.00000000	          0.00000000	          0.68612700	          0.00000000	         -0.24873200	          0.00000000	          0.00000000	          0.00000000	
          0.00450000	       -134.34503900	        656.27991800	         13.52295700	          0.06045300	          0.00600000	         -0.21089500	          0.00000000	          1.12931600	          0.00000000	          0.00000000	          0.00000000	          0.00000000	          0.68612700	          0.00000000	         -0.24873200	          0.00000000	          0.00000000	          0.00000000	
          0.00500000	       -134.53528100	        657.24393100	         13.32696300	          0.06063600	          0.00600000	         -0.21083400	          0.00000000	          1.13742000	          0.00000000	          0.00000000	          0.00000000	          0.00000000	          0.68612700	          0.00000000	         -0.24873200	          0.00000000	          0.00000000	          0.00000000	
          0.00550000	       -134.72491000	        658.20807700	         13.12894100	          0.06081900	          0.00600000	         -0.21077200	          0.00000000	          1.14554500	          0.00000000	          0.00000000	          0.00000000	          0.00000000	          0.68612700	          0.00000000	         -0.24873200	          0.00000000	          0.00000000	          0.00000000	
          0.00600000	       -134.91388900	        659.17222100	         12.92889000	          0.06100400	          0.00600000	         -0.21071000	          0.00000000	          1.15369000	          0.00000000	          0.00000000	          0.00000000	          0.00000000	          0.68612700	          0.00000000	         -0.24873200	          0.00000000	          0.00000000	          0.00000000	
          0.00650000	       -135.10218500	        660.13622900	         12.72680800	          0.06119000	          0.00600000	         -0.21064800	          0.00000000	          1.16185600	          0.00000000	          0.00000000	          0.00000000	          0.00000000	          0.68612700	          0.00000000	         -0.24873200	          0.00000000	          0.00000000	          0.00000000	
          0.00700000	       -135.28976000	        661.09996700	         12.52269300	          0.06137700	          0.00600000	         -0.21058500	          0.00000000	          1.17004100	          0.00000000	          0.00000000	          0.00000000	          0.00000000	          0.68612700	          0.00000000	         -0.24873200	          0.00000000	          0.00000000	          0.00000000	
          0.00750000	       -135.47657800	        662.06330000	         12.31654500	          0.06156400	          0.00600000	         -0.21052100	          0.00000000	          1.17824700	          0.00000000	          0.00000000	          0.00000000	          0.00000000	          0.68612700	          0.00000000	         -0.24873200	          0.00000000	          0.00000000	          0.00000000	
          0.00800000	       -135.66260600	        663.02609300	         12.10836500	          0.06175300	          0.00600000	         -0.21045700	          0.00000000	          1.18647200	          0.00000000	          0.00000000	          0.00000000	          0.00000000	          0.68612700	          0.00000000	         -0.24873200	          0.00000000	          0.00000000	          0.00000000	
          0.00850000	       -135.84780600	        663.98821300	         11.89815200	          0.06194200	          0.00600000	         -0.21039300	          0.00000000	          1.19471500	          0.00000000	          0.00000000	          0.00000000	          0.00000000	          0.68612700	          0.00000000	         -0.24873200	          0.00000000	          0.00000000	          0.00000000	
          0.00900000	       -136.03214300	        664.94952500	         11.68590900	          0.06213300	          0.00600000	         -0.21032900	          0.00000000	          1.20297800	          0.00000000	          0.00000000	          0.00000000	          0.00000000	          0.68612700	          0.00000000	         -0.24873200	          0.00000000	          0.00000000	          0.00000000	
          0.00950000	       -136.21558200	        665.90989500	         11.47163700	          0.06232400	          0.00600000	         -0.21026400	          0.00000000	          1.21126000	          0.00000000	          0.00000000	          0.00000000	          0.00000000	          0.68612700	          0.00000000	         -0.24873200	          0.00000000	          0.00000000	          0.00000000	
          0.01000000	       -136.39808800	        666.86918900	         11.25534100	          0.06251600	          0.00600000	         -0.21019800	          0.00000000	          1.21956000	          0.00000000	          0.00000000	          0.00000000	          0.00000000	          0.68612700	          0.00000000	         -0.24873200	          0.00000000	          0.00000000	          0.00000000	
          0.01050000	       -136.57962500	        667.82727500	         11.03702200	          0.06270900	          0.00600000	         -0.21013200	          0.00000000	          1.22787800	          0.00000000	          0.00000000	          0.00000000	          0.00000000	          0.68612700	          0.00000000	         -0.24873200	          0.00000000	          0.00000000	          0.00000000	
          0.01100000	       -136.76015800	        668.78401900	         10.81668700	          0.06290300	          0.00600000	         -0.21006600	          0.00000000	          1.23621500	          0.00000000	          0.00000000	          0.00000000	          0.00000000	          0.68612700	          0.00000000	         -0.24873200	          0.00000000	          0.00000000	          0.00000000	
          0.01150000	       -136.93965300	        669.73928900	         10.59433900	          0.06309800	          0.00600000	         -0.21000000	          0.00000000	          1.24456900	          0.00000000	          0.00000000	          0.00000000	          0.00000000	          0.68612700	          0.00000000	         -0.24873200	          0.00000000	          0.00000000	          0.00000000	
          0.01200000	       -137.11807500	        670.69295600	         10.36998600	          0.06329400	          0.00600000	         -0.20993300	          0.00000000	          1.25294100	          0.00000000	          0.00000000	          0.00000000	          0.00000000	          0.68612700	          0.00000000	         -0.24873200	          0.00000000	          0.00000000	          0.00000000	
          0.01250000	       -137.29538900	        671.64488900	         10.14363400	          0.06349000	          0.00600000	         -0.20986500	          0.00000000	          1.26133000	          0.00000000	          0.00000000	          0.00000000	          0.00000000	          0.68612700	          0.00000000	         -0.24873200	          0.00000000	          0.00000000	          0.00000000	
          0.01300000	       -137.47156100	        672.59495800	          9.91529100	          0.06368700	          0.00600000	         -0.20979800	          0.00000000	          1.26973800	          0.00000000	          0.00000000	          0.00000000	          0.00000000	          0.68612700	          0.00000000	         -0.24873200	          0.00000000	          0.00000000	          0.00000000	
          0.01350000	       -137.64655700	        673.54303600	          9.68496600	          0.06388600	          0.00600000	         -0.20972900	          0.00000000	          1.27816200	          0.00000000	          0.00000000	          0.00000000	          0.00000000	          0.68612700	          0.00000000	         -0.24873200	          0.00000000	          0.00000000	          0.00000000	
          0.01400000	       -137.82034300	        674.48899600	          9.45266700	          0.06408500	          0.00600000	         -0.20966100	          0.00000000	          1.28660400	          0.00000000	          0.00000000	          0.00000000	          0.00000000	          0.68612700	          0.00000000	         -0.24873200	          0.00000000	          0.00000000	          0.00000000	
